<svg xmlns="http://www.w3.org/2000/svg" viewBox="0 0 400 300" data-imageid="report-analysis-flatline"  class="illustrations_image" style="width: 666px;"><g id="_111_report_analysis_flatline" data-name="#111_report_analysis_flatline"><rect x="103.92" y="62.89" width="194.35" height="120.66" rx="8.34" transform="translate(402.18 246.44) rotate(-180)" fill="#fff"/><path d="M289.92,184.05H112.26a8.85,8.85,0,0,1-8.84-8.84v-104a8.85,8.85,0,0,1,8.84-8.84H289.92a8.85,8.85,0,0,1,8.84,8.84v104A8.85,8.85,0,0,1,289.92,184.05ZM112.26,63.39a7.85,7.85,0,0,0-7.84,7.84v104a7.85,7.85,0,0,0,7.84,7.84H289.92a7.85,7.85,0,0,0,7.84-7.84v-104a7.85,7.85,0,0,0-7.84-7.84Z" fill="#231f20"/><rect x="114.45" y="72.34" width="173.27" height="101.76" rx="7.23" transform="translate(402.18 246.44) rotate(-180)" fill="#fff"/><path d="M280.49,174.6H121.69a7.74,7.74,0,0,1-7.74-7.73V79.57a7.74,7.74,0,0,1,7.74-7.73h158.8a7.74,7.74,0,0,1,7.74,7.73v87.3A7.74,7.74,0,0,1,280.49,174.6ZM121.69,72.84A6.74,6.74,0,0,0,115,79.57v87.3a6.74,6.74,0,0,0,6.74,6.73h158.8a6.74,6.74,0,0,0,6.74-6.73V79.57a6.74,6.74,0,0,0-6.74-6.73Z" fill="#d1d3d4"/><rect x="204.56" y="113.66" width="17.63" height="19.43" fill="#fff"/><path d="M222.19,133.59H204.56a.5.5,0,0,1-.5-.5V113.66a.5.5,0,0,1,.5-.5h17.63a.5.5,0,0,1,.5.5v19.43A.5.5,0,0,1,222.19,133.59Zm-17.13-1h16.63V114.16H205.06Z" fill="#d1d3d4"/><rect x="233.37" y="97.15" width="17.63" height="35.94" fill="#fff"/><path d="M251,133.59H233.37a.5.5,0,0,1-.5-.5V97.15a.5.5,0,0,1,.5-.5H251a.5.5,0,0,1,.5.5v35.94A.51.51,0,0,1,251,133.59Zm-17.13-1H250.5V97.65H233.87Z" fill="#d1d3d4"/><rect x="262.17" y="82.91" width="17.63" height="50.18" fill="#078340" class="target-color"/><line x1="127.88" y1="92.37" x2="167.45" y2="92.37" fill="#fff"/><path d="M167.45,92.87H127.88a.5.5,0,0,1-.5-.5.5.5,0,0,1,.5-.5h39.57a.5.5,0,0,1,.5.5A.5.5,0,0,1,167.45,92.87Z" fill="#d1d3d4"/><line x1="127.88" y1="103.22" x2="167.45" y2="103.22" fill="#fff"/><path d="M167.45,103.71H127.88a.5.5,0,0,1-.5-.5.5.5,0,0,1,.5-.5h39.57a.5.5,0,0,1,.5.5A.5.5,0,0,1,167.45,103.71Z" fill="#d1d3d4"/><line x1="127.88" y1="114.06" x2="157.24" y2="114.06" fill="#fff"/><path d="M157.24,114.56H127.88a.5.5,0,0,1-.5-.5.5.5,0,0,1,.5-.5h29.36a.5.5,0,0,1,.5.5A.5.5,0,0,1,157.24,114.56Z" fill="#d1d3d4"/><line x1="277.71" y1="150" x2="231.02" y2="150" fill="#fff"/><path d="M277.71,150.5H231a.5.5,0,1,1,0-1h46.69a.5.5,0,0,1,0,1Z" fill="#d1d3d4"/><line x1="268.98" y1="160.51" x2="231.02" y2="160.51" fill="#fff"/><path d="M269,161H231a.5.5,0,0,1-.5-.5.51.51,0,0,1,.5-.5h38a.5.5,0,0,1,.5.5A.5.5,0,0,1,269,161Z" fill="#d1d3d4"/><path d="M292.65,201.07V179.42A52.22,52.22,0,0,1,282.94,168c-4.46-7.08-20.08-33.07-12.86-35.43s27.17,22.07,27.17,22.07l1-35.87s15.65,12.23,20.37,25.61,2.76,63.77,2.76,63.77Z" fill="#fff"/><path d="M321.39,208.65h-.12l-28.74-7.09a.49.49,0,0,1-.38-.48V179.65a54.27,54.27,0,0,1-9.63-11.38c-4-6.37-16.9-27.65-14.52-34.26a2.94,2.94,0,0,1,1.93-1.91c3.18-1,8.83,2.41,16.79,10.27,4.43,4.37,8.39,8.95,10.07,10.94l1-34.55a.51.51,0,0,1,.29-.44.49.49,0,0,1,.52.06c.16.12,15.82,12.47,20.53,25.84s2.87,61.89,2.79,63.95a.51.51,0,0,1-.2.38A.47.47,0,0,1,321.39,208.65Zm-28.24-8,27.76,6.84c.2-5.79,1.61-50.62-2.75-63-4-11.39-16.22-22.08-19.42-24.75l-1,34.85a.51.51,0,0,1-.89.31c-5.49-6.72-21-23.76-26.62-21.91a2,2,0,0,0-1.3,1.3c-1.77,4.92,6.66,21.06,14.42,33.38A52.49,52.49,0,0,0,293,179a.53.53,0,0,1,.18.39Z" fill="#231f20"/><polygon points="325.78 191.5 285.75 191.5 285.75 208.64 329.75 216.86 325.78 191.5" fill="#231f20"/><path d="M329.75,217.36h-.1l-44-8.21a.51.51,0,0,1-.4-.5V191.5a.5.5,0,0,1,.5-.5h40a.51.51,0,0,1,.5.42l4,25.36a.49.49,0,0,1-.15.44A.48.48,0,0,1,329.75,217.36Zm-43.49-9.13,42.88,8L325.35,192H286.26Z" fill="#231f20"/><polygon points="331.73 204.18 282.19 201.8 282.19 241.04 335.69 235.49 331.73 204.18" fill="#078340" class="target-color"/><path d="M215.33,163.27a.49.49,0,0,1-.38-.18l-14.8-17-10.78,10.14a.49.49,0,0,1-.69,0L172.87,140.5a.5.5,0,0,1,0-.71.51.51,0,0,1,.71,0L189,155.19,199.85,145a.48.48,0,0,1,.36-.14.49.49,0,0,1,.35.17l15.15,17.38a.49.49,0,0,1-.05.7A.53.53,0,0,1,215.33,163.27Z" fill="#d1d3d4"/><path d="M160.42,112.82h.48a3.92,3.92,0,0,1,3.92,3.92v31.11a0,0,0,0,1,0,0H156.5a0,0,0,0,1,0,0V116.74A3.92,3.92,0,0,1,160.42,112.82Z" transform="translate(197.31 333.95) rotate(-139.26)" fill="#fff"/><path d="M152,145.22a4.43,4.43,0,0,1-2.88-1.07l-.37-.32h0a4.42,4.42,0,0,1-.46-6.24L168.56,114a.51.51,0,0,1,.34-.17.5.5,0,0,1,.37.12l6.31,5.43a.51.51,0,0,1,0,.71l-20.31,23.57a4.33,4.33,0,0,1-3,1.52Zm-2.6-2.15.37.32a3.47,3.47,0,0,0,2.49.82,3.39,3.39,0,0,0,2.33-1.18l20-23.19L169,115.05l-20,23.19a3.43,3.43,0,0,0,.36,4.83Z" fill="#231f20"/><rect x="173.59" y="92.31" width="13.45" height="30.43" transform="translate(246.75 306.68) rotate(-139.26)" fill="#fff"/><path d="M175.48,123.94a.5.5,0,0,1-.33-.12L165,115a.49.49,0,0,1-.06-.7l19.86-23.06a.51.51,0,0,1,.35-.17.48.48,0,0,1,.36.12L195.67,100a.51.51,0,0,1,.05.71l-19.86,23.06a.51.51,0,0,1-.34.17ZM166,114.61l9.43,8.12,19.21-22.29-9.43-8.13Z" fill="#231f20"/><rect x="132.63" y="128.61" width="13.45" height="52.92" rx="4.75" transform="matrix(-0.76, -0.65, 0.65, -0.76, 143.72, 363.51)" fill="#fff"/><path d="M126.67,178.06a5.24,5.24,0,0,1-3.41-1.27l-3-2.58h0a5.25,5.25,0,0,1-.55-7.4l28.34-32.9a5.25,5.25,0,0,1,7.4-.55l3,2.58a5.26,5.26,0,0,1,.55,7.4l-28.34,32.9a5.21,5.21,0,0,1-3.59,1.8Zm-5.76-4.61,3,2.58a4.24,4.24,0,0,0,6-.45l28.34-32.89a4.24,4.24,0,0,0-.45-6l-3-2.58a4.25,4.25,0,0,0-6,.44l-28.34,32.9a4.25,4.25,0,0,0,.44,6Z" fill="#231f20"/><circle cx="195.32" cy="90.11" r="35.7" fill="#fff"/><path d="M195.29,126.3a36.18,36.18,0,1,1,27.46-12.56A36,36,0,0,1,195.29,126.3Zm.08-71.4c-.88,0-1.77,0-2.66.1a35.09,35.09,0,1,0,2.66-.1Z" fill="#231f20"/><circle cx="195.32" cy="90.11" r="29" fill="#fff"/><path d="M195.3,119.6A29.5,29.5,0,0,1,173,70.85h0A29.5,29.5,0,1,1,195.3,119.6Zm.06-58c-.71,0-1.43,0-2.16.08a28.25,28.25,0,0,0-19.47,9.82h0a28.49,28.49,0,1,0,21.63-9.9Zm-22,9.57h0Z" fill="#231f20"/><path d="M122.75,198.62a116.51,116.51,0,0,1,5.53-10.71c1.4-2.39,2.92-5.51,4.91-7.48s5-3.3,7.27-5.34c8.69-7.87,17.52-16.72,20.12-28.16.42-1.84.09-4.51-1.8-4.61a3.4,3.4,0,0,0-1.94.73c-4.67,3.06-8.14,8.16-12.69,11,1.2-.8,1.55-10.5,2.3-12.4,1.48-3.73,3.82-7.18,5.57-10.88.7-1.48,1.41-3.17.8-4.69a4.05,4.05,0,0,0-3.69-2.25,11.66,11.66,0,0,0-4.43,1q-8,3-15.86,6.49A19.76,19.76,0,0,0,124,134a20.38,20.38,0,0,0-3.88,4.95c-4,6.33-15.41,28-17.11,32.91-.61,1.75-7.23,22.13-8.16,22Z" fill="#fff"/><path d="M122.75,199.12h-.09l-27.88-4.75a.51.51,0,0,1-.41-.58.49.49,0,0,1,.31-.38c.51-.62,2.22-4.68,7.34-20.11.26-.79.45-1.34.52-1.57,1.68-4.86,13-26.37,17.16-33a20.49,20.49,0,0,1,4-5.07,20.56,20.56,0,0,1,4.95-2.8c5.21-2.3,10.56-4.49,15.88-6.5a12.29,12.29,0,0,1,4.62-1.06,4.61,4.61,0,0,1,4.14,2.56c.68,1.69-.06,3.51-.81,5.1s-1.58,3.07-2.4,4.55a56,56,0,0,0-3.15,6.29,31,31,0,0,0-.78,5,53.75,53.75,0,0,1-.86,5.86,46.21,46.21,0,0,0,4.94-4.48,42,42,0,0,1,6.35-5.51,3.71,3.71,0,0,1,2.24-.82,2.2,2.2,0,0,1,1.68.91,5.64,5.64,0,0,1,.58,4.31c-2.66,11.7-11.86,20.8-20.28,28.42a26.14,26.14,0,0,1-3.57,2.59,22.15,22.15,0,0,0-3.68,2.74,27,27,0,0,0-3.94,5.81c-.3.54-.59,1.07-.88,1.56a115,115,0,0,0-5.52,10.67A.49.49,0,0,1,122.75,199.12Zm-27-5.61,26.7,4.55a116.88,116.88,0,0,1,5.4-10.4c.29-.49.58-1,.88-1.54a27.36,27.36,0,0,1,4.11-6,23.42,23.42,0,0,1,3.84-2.87,26.42,26.42,0,0,0,3.44-2.49c8.3-7.51,17.38-16.49,20-27.9a4.72,4.72,0,0,0-.41-3.49,1.2,1.2,0,0,0-.94-.51,3,3,0,0,0-1.64.65,41.31,41.31,0,0,0-6.18,5.39,38.09,38.09,0,0,1-6.52,5.58.5.5,0,0,1-.68-.16.51.51,0,0,1,.14-.69c.53-.44,1-4.51,1.28-6.93a30,30,0,0,1,.84-5.24,56.18,56.18,0,0,1,3.2-6.4c.82-1.47,1.65-3,2.38-4.5s1.31-3,.78-4.29a3.56,3.56,0,0,0-3.24-1.94,11.36,11.36,0,0,0-4.23,1c-5.31,2-10.64,4.18-15.84,6.48a20.08,20.08,0,0,0-4.71,2.64,20.3,20.3,0,0,0-3.78,4.84c-4.15,6.6-15.4,28-17.06,32.8L103,173.6C98.5,187.07,96.66,191.84,95.75,193.51Zm-.8-.14Z" fill="#231f20"/><polygon points="129 194.86 90.83 182.87 84.38 199.84 123.32 210.02 129 194.86" fill="#231f20"/><path d="M123.32,210.52l-.13,0L84.25,200.32a.5.5,0,0,1-.31-.26.47.47,0,0,1,0-.4l6.45-17a.49.49,0,0,1,.62-.29l38.17,12a.5.5,0,0,1,.32.65l-5.68,15.15A.52.52,0,0,1,123.32,210.52Zm-38.27-11,38,9.93,5.34-14.24L91.12,183.49Z" fill="#231f20"/><polygon points="127.67 208 80.56 193.91 64.31 228.98 117.84 245.6 127.67 208" fill="#078340" class="target-color"/><path d="M183.47,88.71H174a.48.48,0,0,1-.36-.16.49.49,0,0,1-.14-.38A22,22,0,0,1,179,75a23.33,23.33,0,0,1,2.05-2,22,22,0,0,1,13.22-5.49.53.53,0,0,1,.38.14.48.48,0,0,1,.15.36V77.4a.51.51,0,0,1-.44.5A11.87,11.87,0,0,0,184,88.26.49.49,0,0,1,183.47,88.71Zm-8.95-1H183a12.74,12.74,0,0,1,2.63-6,12.52,12.52,0,0,1,2.09-2.09,12.71,12.71,0,0,1,6-2.63V68.45a21,21,0,0,0-12.09,5.2h0a22.66,22.66,0,0,0-2,2A21,21,0,0,0,174.52,87.71Zm6.83-14.43h0Z" fill="#d1d3d4"/><path d="M217.4,88.21A21.58,21.58,0,0,0,212,75.28L205.34,82a12.26,12.26,0,0,1,2.58,6.22,12.55,12.55,0,0,1,0,2.83,12.36,12.36,0,0,1-10.81,10.81,13.22,13.22,0,0,1-1.42.08,13.37,13.37,0,0,1-1.42-.08A12.33,12.33,0,0,1,183.47,91H174A21.65,21.65,0,0,0,179.35,104a20,20,0,0,0,2,2,21.59,21.59,0,0,0,12.91,5.37c.47,0,.94,0,1.42,0s.95,0,1.42,0A21.59,21.59,0,0,0,210,106a20,20,0,0,0,2-2A21.58,21.58,0,0,0,217.4,91c0-.47,0-.94,0-1.42S217.44,88.67,217.4,88.21Z" fill="#078340" class="target-color"/><path d="M203.33,80.49a.51.51,0,0,1-.31-.11,11.68,11.68,0,0,0-6-2.48.51.51,0,0,1-.44-.5V67.91a.48.48,0,0,1,.16-.36.52.52,0,0,1,.37-.14,22,22,0,0,1,13.23,5.49.53.53,0,0,1,.17.36.51.51,0,0,1-.15.37l-6.71,6.71A.47.47,0,0,1,203.33,80.49ZM197.61,77a12.79,12.79,0,0,1,5.68,2.36l6-6a21,21,0,0,0-11.69-4.86Z" fill="#d1d3d4"/><path d="M121.94,197.76a2.54,2.54,0,0,0-.68-1.16l-.53-.42a2.6,2.6,0,0,0-1.33-.36H119a2.12,2.12,0,0,0-1,.23,2,2,0,0,0-.85.55,3,3,0,0,0-.77,1.86l.1.7a2.64,2.64,0,0,0,.67,1.17l.54.41a2.58,2.58,0,0,0,1.33.36h.4a1.86,1.86,0,0,0,1-.23,1.88,1.88,0,0,0,.85-.54,2,2,0,0,0,.55-.85,2.09,2.09,0,0,0,.23-1Z" fill="#fff"/><path d="M293.29,193.61c-3.4,0-3.41,5.28,0,5.28S296.69,193.61,293.29,193.61Z" fill="#fff"/><path d="M248.78,193.61H191.11L184.31,170v23.64H166.22a7.33,7.33,0,0,0-7.33,7.33v19.89a7.33,7.33,0,0,0,7.33,7.33h82.56a7.33,7.33,0,0,0,7.33-7.33V200.94A7.34,7.34,0,0,0,248.78,193.61Z" fill="#fff"/><path d="M248.78,228.66H166.22a7.84,7.84,0,0,1-7.83-7.83V200.94a7.84,7.84,0,0,1,7.83-7.83h17.59V170a.51.51,0,0,1,.43-.5.51.51,0,0,1,.55.36l6.69,23.28h57.3a7.85,7.85,0,0,1,7.83,7.83v19.89A7.84,7.84,0,0,1,248.78,228.66Zm-82.56-34.55a6.84,6.84,0,0,0-6.83,6.83v19.89a6.84,6.84,0,0,0,6.83,6.83h82.56a6.85,6.85,0,0,0,6.83-6.83V200.94a6.85,6.85,0,0,0-6.83-6.83H191.11a.48.48,0,0,1-.48-.36l-5.82-20.23v20.09a.5.5,0,0,1-.5.5Z" fill="#231f20"/><path d="M240.52,203.17h-51a.5.5,0,0,1,0-1h51a.5.5,0,0,1,0,1Z" fill="#d1d3d4"/><path d="M240.52,211.39h-51a.5.5,0,0,1-.5-.5.5.5,0,0,1,.5-.5h51a.5.5,0,0,1,.5.5A.51.51,0,0,1,240.52,211.39Z" fill="#d1d3d4"/><path d="M229.34,219.6H189.48a.5.5,0,0,1-.5-.5.5.5,0,0,1,.5-.5h39.86a.5.5,0,0,1,.5.5A.5.5,0,0,1,229.34,219.6Z" fill="#d1d3d4"/><path d="M333.45,70.62H312a5.55,5.55,0,0,0-5.55,5.55V92.1l-16.52,5.29h16.52v.27a5.55,5.55,0,0,0,5.55,5.56h21.49A5.55,5.55,0,0,0,339,97.66V76.17A5.55,5.55,0,0,0,333.45,70.62Z" fill="#fff"/><path d="M333.45,103.71H312a6.06,6.06,0,0,1-6-5.82h-16a.48.48,0,0,1-.49-.42.49.49,0,0,1,.34-.55l16.17-5.19V76.17a6.05,6.05,0,0,1,6-6h21.49a6.05,6.05,0,0,1,6.05,6V97.66A6.05,6.05,0,0,1,333.45,103.71Zm-40.36-6.82h13.32a.51.51,0,0,1,.5.5v.27a5,5,0,0,0,5,5h21.49a5,5,0,0,0,5.05-5V76.17a5.06,5.06,0,0,0-5.05-5H312a5.06,5.06,0,0,0-5,5V92.1a.48.48,0,0,1-.35.47Z" fill="#231f20"/><path d="M332,80.56H314.45a.5.5,0,0,1,0-1H332a.5.5,0,0,1,0,1Z" fill="#d1d3d4"/><path d="M332,87.53H314.45a.5.5,0,0,1-.5-.5.5.5,0,0,1,.5-.5H332a.5.5,0,0,1,.5.5A.5.5,0,0,1,332,87.53Z" fill="#d1d3d4"/><path d="M327.53,94.5H314.45a.5.5,0,0,1-.5-.5.5.5,0,0,1,.5-.5h13.08a.51.51,0,0,1,.5.5A.5.5,0,0,1,327.53,94.5Z" fill="#d1d3d4"/><path d="M109.88,127.27H96V92.59a4.38,4.38,0,0,0-4.38-4.38H65.16a4.38,4.38,0,0,0-4.38,4.38v53A4.38,4.38,0,0,0,65.16,150H91.61A4.38,4.38,0,0,0,96,145.62v-12Z" fill="#fff"/><path d="M91.61,150.5H65.16a4.89,4.89,0,0,1-4.88-4.88v-53a4.89,4.89,0,0,1,4.88-4.88H91.61a4.89,4.89,0,0,1,4.88,4.88v34.18h13.39a.49.49,0,0,1,.49.39.5.5,0,0,1-.28.56l-13.6,6.2v11.7A4.89,4.89,0,0,1,91.61,150.5ZM65.16,88.71a3.88,3.88,0,0,0-3.88,3.88v53a3.88,3.88,0,0,0,3.88,3.88H91.61a3.88,3.88,0,0,0,3.88-3.88v-12a.5.5,0,0,1,.29-.46l11.8-5.37H96a.5.5,0,0,1-.5-.5V92.59a3.88,3.88,0,0,0-3.88-3.88Z" fill="#231f20"/><rect x="66.08" y="96.88" width="24.78" height="13.7" fill="#fff"/><path d="M90.86,111.08H66.08a.5.5,0,0,1-.5-.5V96.88a.5.5,0,0,1,.5-.5H90.86a.5.5,0,0,1,.5.5v13.7A.5.5,0,0,1,90.86,111.08Zm-24.28-1H90.36V97.38H66.58Z" fill="#d1d3d4"/><path d="M90.86,115.67H66.08a.5.5,0,0,1,0-1H90.86a.5.5,0,0,1,0,1Z" fill="#d1d3d4"/><path d="M90.86,122.21H66.08a.5.5,0,0,1,0-1H90.86a.5.5,0,0,1,0,1Z" fill="#d1d3d4"/><path d="M90.86,128.75H66.08a.5.5,0,1,1,0-1H90.86a.5.5,0,1,1,0,1Z" fill="#d1d3d4"/><path d="M90.86,135.29H66.08a.51.51,0,0,1-.5-.5.5.5,0,0,1,.5-.5H90.86a.5.5,0,0,1,.5.5A.51.51,0,0,1,90.86,135.29Z" fill="#d1d3d4"/><path d="M84.38,141.83H66.08a.51.51,0,0,1-.5-.5.5.5,0,0,1,.5-.5h18.3a.5.5,0,0,1,.5.5A.5.5,0,0,1,84.38,141.83Z" fill="#d1d3d4"/><circle cx="175.52" cy="210.89" r="9.08" fill="#fff"/><path d="M175.52,220.47a9.58,9.58,0,1,1,9.58-9.58A9.59,9.59,0,0,1,175.52,220.47Zm0-18.16a8.58,8.58,0,1,0,8.58,8.58A8.58,8.58,0,0,0,175.52,202.31Z" fill="#d1d3d4"/><polyline points="178.77 202.67 175.52 210.89 181.25 217.93" fill="#fff"/><path d="M181.25,218.43a.47.47,0,0,1-.38-.19l-5.73-7a.48.48,0,0,1-.08-.5l3.25-8.21a.5.5,0,0,1,.64-.29.51.51,0,0,1,.29.65l-3.14,8,5.54,6.81a.51.51,0,0,1-.07.71A.52.52,0,0,1,181.25,218.43Z" fill="#d1d3d4"/><line x1="175.52" y1="210.89" x2="167.42" y2="214.97" fill="#fff"/><path d="M167.42,215.47a.5.5,0,0,1-.23-.94l8.11-4.09a.5.5,0,0,1,.45.89l-8.11,4.09A.44.44,0,0,1,167.42,215.47Z" fill="#d1d3d4"/></g></svg>
